<svg xmlns:xlink="http://www.w3.org/1999/xlink" xmlns="http://www.w3.org/2000/svg" viewBox="0 0 347.076347936067 60.87815209179175" height="60.87815209179175" width="347.076347936067" style="width: 347.076px; height: 60.8782px; position: absolute; top: 50%; left: 50%; transform: translate(-50%, -50%) scale(0.426995); z-index: 0; cursor: pointer;"><defs id="SvgjsDefs1218"></defs><g id="SvgjsG1219" featurekey="5TMTKC-0" transform="matrix(0.9502647253883084,0,0,0.9502647253883084,-5.599313385280802,-12.4848742096199)" fill="#C8E7ED"><g xmlns="http://www.w3.org/2000/svg" fill="#C8E7ED"><g fill="#C8E7ED"><path d="M12,24.5c0.2,0.1,0.2,0.3,0.2,0.5l-1,2.9c-0.1,0.4,0.3,0.7,0.7,0.5l2.5-1.8c0.2-0.1,0.4-0.1,0.5,0l2.5,1.8    c0.3,0.2,0.8-0.1,0.7-0.5l-1-2.9c-0.1-0.2,0-0.4,0.2-0.5l2.5-1.8c0.3-0.2,0.2-0.8-0.3-0.8h-3.1c-0.2,0-0.4-0.1-0.4-0.3l-1-2.9    c-0.1-0.4-0.7-0.4-0.8,0l-1,2.9c-0.1,0.2-0.2,0.3-0.4,0.3H9.8c-0.4,0-0.6,0.5-0.3,0.8L12,24.5z" fill="#C8E7ED"></path><path d="M83.3,57.3c-1.6-0.3-0.6-0.3-3.7-0.4c-0.4,0-0.8-0.3-1-0.6c-1.1-2.2-1.6-4.5-1.9-7.1c-0.4-2.9-1.2-5.7-1.6-6.2    c-0.4-0.5-4.4-12.2-14.6-12.3c0,0.1-6.2,0.4-10.3,1.2c-4.3,0.9-6.3-2.1-8.7-2.4c-2.3-0.3-6-0.2-9.4,2.2c-3.5,2.5-7.2,4-8.4,4.5    c-0.3,0.1-0.6,0.1-0.9,0c-0.7-0.3-2-0.8-2.3,0.1c-0.4,1.2-2.9,0.2-3.2,2.1c-0.2,1.4-1.2,2-1.7,3.2c-0.5,1.2,0.2,3.3-0.9,4.2    c-1.1,0.9-3.9,2.3-3.1,3.1s-1.2,4.3,4.7,3.5c5.9-0.8,3.4,1.7,6.6-1c3.2-2.7,7.9-4.4,8.1-3.5c0.2,0.8-0.4,5-1.6,6.4    c-0.3,0.4-0.8,1-1.3,1.7c-0.8-0.1-1.9,0-2.3,0C4.9,58.1,5.9,61.9,5.9,63.7c0,2.2,1.1,4.8,13.9,6.8c8.2,1.3,19,2,30.5,2    c11.5,0,22.3-0.7,30.5-2c12.8-2,13.9-4.6,13.9-6.8C94.7,61.2,92.7,59.1,83.3,57.3z M88.5,64.8c-5.9,1.9-19.3,3.8-38.2,3.8    c-19.1,0-32.6-1.9-38.4-3.8c-1-0.3-1-1.7,0-2.1c1.8-0.7,4.6-1.4,8.9-2c0.8-0.1,1.3,0.6,1.2,1.4c-0.1,0.7,1.2,1.1,5.9,0.7    c0.2,0,0.3-0.1,0.5-0.2c1.3-0.8,8.2-5.2,11.1-8.9c0.4-0.5,1.1-0.6,1.6-0.2c3.3,2.9,5.9,5.1,3.8,5.1c-2.2,0-4.3,3.1,0.5,2.5    c4.8-0.6,6.7-1,4.9-5.4c-1-2.5-1.5-3.7-1.7-4.2c-0.1-0.2,0.1-0.4,0.3-0.4l5.4,0.4c0.5,0,0.9,0.3,1,0.8c0.6,1.9,2,6.7,0.3,6.9    c-2.1,0.3-5.1,2.6-2.5,2.9c2.5,0.3,4.7,1.2,9.1-3.7c2-2.3,3.4-3.5,4.2-4c0.6-0.4,1.4-0.2,1.6,0.5c0.6,1.4,2,3.6,4.5,3.1    c2.6-0.5,3.5,0.9,2.3,1.7c-1.8,1.3-4,2.5-0.9,2.6c1.8,0,4-0.1,5.1-1c0.2-0.2,0.6-0.3,0.9-0.2c2.6,0.1,1.5,0.1,3,0.4    c2.6,0.5,4.4,1,5.7,1.4C89.6,63,89.5,64.4,88.5,64.8z" fill="#C8E7ED"></path></g></g></g><g id="SvgjsG1220" featurekey="sloganFeature-0" transform="matrix(1.1017026197615973,0,0,1.1017026197615973,103.99999973733362,38.645767672817925)" fill="#FFFFC2"><path d="M4.42 6.1 l0 13.9 l-1.16 0 l0 -13.9 l-3.26 0 l0 -1.1 l7.68 0 l0 1.1 l-3.26 0 z M16.32 20 l-3.3 -6.22 l-3.06 0 l0 6.22 l-0.98 0 l0 -15 l3.4 0 c0.78666 0 1.46 0.11666 2.02 0.35 s1.02 0.55 1.38 0.95 s0.62666 0.86334 0.8 1.39 s0.26 1.0767 0.26 1.65 c0 0.97334 -0.25 1.85 -0.75 2.63 s-1.1567 1.35 -1.97 1.71 l3.52 6.32 l-1.32 0 z M12.24 5.92 l-2.28 -0.000019531 l0 6.84 l2.42 0 c0.68 0 1.24 -0.10334 1.68 -0.31 s0.78334 -0.47332 1.03 -0.79998 s0.42 -0.7 0.52 -1.12 s0.15 -0.85 0.15 -1.29 c0 -0.46666 -0.08 -0.9 -0.24 -1.3 s-0.39 -0.75 -0.69 -1.05 s-0.66666 -0.53666 -1.1 -0.71 s-0.93 -0.26 -1.49 -0.26 z M26.58 20 l-1.1 -4.42 l-4.88 0 l-1.1 4.42 l-1 0 l4.14 -15 l0.86 0 l4.12 15 l-1.04 0 z M23.099999999999998 5.9399999999999995 l-2.26 8.68 l4.38 0 z M35.699999999999996 20 l-5.8 -12.88 l0 12.88 l-1.1 0 l0 -15 l1.18 0 l5.8 12.3 l0.14 -12.3 l1.08 0 l0 15 l-1.3 0 z M42.660000000000004 20.18 c-0.65334 0 -1.2335 -0.086738 -1.7401 -0.26008 s-0.93332 -0.45 -1.28 -0.83 s-0.60332 -0.87666 -0.76998 -1.49 s-0.23666 -1.3533 -0.21 -2.22 l1.2 0 c0 0.42666 0.02 0.87 0.06 1.33 s0.14666 0.88 0.32 1.26 s0.43668 0.69 0.79002 0.93 s0.84334 0.36 1.47 0.36 c0.53334 0 0.98668 -0.08 1.36 -0.24 s0.67668 -0.37334 0.91002 -0.64 s0.39668 -0.58 0.49002 -0.94 s0.14 -0.73334 0.14 -1.12 c0 -0.45334 -0.08334 -0.85 -0.25 -1.19 s-0.38666 -0.64334 -0.66 -0.91 s-0.59334 -0.50332 -0.96 -0.70998 s-0.75 -0.39 -1.15 -0.55 c-0.64 -0.25334 -1.2 -0.50334 -1.68 -0.75 s-0.87334 -0.52332 -1.18 -0.82998 s-0.53666 -0.66332 -0.69 -1.07 s-0.23 -0.90332 -0.23 -1.49 c0 -1.3333 0.35 -2.3266 1.05 -2.98 s1.7033 -0.98 3.01 -0.98 c1.1333 0 2.03 0.33 2.69 0.99 s0.99 1.65 0.99 2.97 l0 1.1 l-1.12 0 l0 -1.2 c0 -0.41334 -0.05 -0.79668 -0.15 -1.15 s-0.25666 -0.66334 -0.47 -0.93 s-0.48334 -0.47666 -0.81 -0.63 s-0.71666 -0.23 -1.17 -0.23 c-1.0667 0 -1.83 0.28 -2.29 0.84 s-0.67 1.3133 -0.63 2.26 c0.01334 0.41334 0.09 0.76668 0.23 1.06 s0.32666 0.55 0.56 0.77 s0.51334 0.41666 0.84 0.59 s0.69 0.34668 1.09 0.52002 c0.46666 0.2 0.93 0.41334 1.39 0.64 s0.89 0.50666 1.29 0.84 c0.4 0.34666 0.73 0.75 0.99 1.21 s0.39 1.03 0.39 1.71 c0 1.32 -0.33666 2.31 -1.01 2.97 s-1.61 0.99 -2.81 0.99 z M48.72 6.140000000000001 l0 6.06 l6.02 0 l0 1.06 l-6.02 0 l0 6.74 l-1.16 0 l0 -15 l7.28 0 l0 1.14 l-6.12 0 z M59.36000000000001 20.18 c-2.52 0 -3.78 -1.32 -3.78 -3.96 l0 -7.4 c0 -1.3333 0.31666 -2.3266 0.95 -2.98 s1.6567 -0.98 3.07 -0.98 c1.2933 0 2.25 0.33 2.87 0.99 s0.93 1.6367 0.93 2.93 l0 7.44 c0 0.66666 -0.07 1.2467 -0.21 1.74 s-0.37 0.90668 -0.69 1.24 s-0.73666 0.58 -1.25 0.74 s-1.1433 0.24 -1.89 0.24 z M62.34 8.76 c0 -0.33334 -0.04664 -0.67338 -0.13998 -1.02 s-0.24668 -0.66332 -0.46002 -0.94998 s-0.49668 -0.52 -0.85002 -0.7 s-0.79 -0.27 -1.31 -0.27 c-0.57334 0 -1.05 0.08 -1.43 0.24 s-0.68 0.38334 -0.9 0.67 s-0.37666 0.62332 -0.47 1.01 s-0.14 0.80666 -0.14 1.26 l0 7.1 c0 0.34666 0.04 0.7 0.12 1.06 s0.22334 0.69 0.43 0.99 s0.48666 0.54666 0.84 0.74 s0.79668 0.29 1.33 0.29 c0.57334 0 1.05 -0.07666 1.43 -0.23 s0.68334 -0.36334 0.91 -0.63 s0.39 -0.58332 0.49 -0.94998 s0.15 -0.76332 0.15 -1.19 l0 -7.42 z M72.48000000000002 20 l-3.3 -6.22 l-3.06 0 l0 6.22 l-0.98 0 l0 -15 l3.4 0 c0.78666 0 1.46 0.11666 2.02 0.35 s1.02 0.55 1.38 0.95 s0.62666 0.86334 0.8 1.39 s0.26 1.0767 0.26 1.65 c0 0.97334 -0.25 1.85 -0.75 2.63 s-1.1567 1.35 -1.97 1.71 l3.52 6.32 l-1.32 0 z M68.40000000000002 5.92 l-2.28 -0.000019531 l0 6.84 l2.42 0 c0.68 0 1.24 -0.10334 1.68 -0.31 s0.78334 -0.47332 1.03 -0.79998 s0.42 -0.7 0.52 -1.12 s0.15 -0.85 0.15 -1.29 c0 -0.46666 -0.08 -0.9 -0.24 -1.3 s-0.39 -0.75 -0.69 -1.05 s-0.66666 -0.53666 -1.1 -0.71 s-0.93 -0.26 -1.49 -0.26 z M84.28000000000002 20 l0 -12.72 l-3.62 8.66 l-1.12 -0.02 l-3.54 -8.66 l0 12.74 l-0.98 0 l0 -15 l1.04 0 l4.06 9.76 l4.08 -9.76 l1.06 0 l0 15 l-0.98 0 z M94.48 20 l-1.1 -4.42 l-4.88 0 l-1.1 4.42 l-1 0 l4.14 -15 l0.86 0 l4.12 15 l-1.04 0 z M91 5.9399999999999995 l-2.26 8.68 l4.38 0 z M98.94000000000001 6.1 l0 13.9 l-1.16 0 l0 -13.9 l-3.26 0 l0 -1.1 l7.68 0 l0 1.1 l-3.26 0 z M103.50000000000001 20 l0 -15 l1.28 0 l0 15 l-1.28 0 z M111.78000000000002 20 l-0.86 0 l-4.14 -15 l1.06 0 l3.5 13.26 l3.58 -13.26 l1.02 0 z M116.74000000000001 20 l0 -15 l7.36 0 l0 1.16 l-6.32 0 l0 5.7 l6.26 0 l0 0.92 l-6.26 0 l0 6.06 l6.46 0 l0 1.16 l-7.5 0 z M133.32 6.1 l0 13.9 l-1.16 0 l0 -13.9 l-3.26 0 l0 -1.1 l7.68 0 l0 1.1 l-3.26 0 z M137.68 20 l0 -15 l7.36 0 l0 1.16 l-6.32 0 l0 5.7 l6.26 0 l0 0.92 l-6.26 0 l0 6.06 l6.46 0 l0 1.16 l-7.5 0 z M152.70000000000002 16.22 c-0.01334 0.66666 -0.076582 1.25 -0.18992 1.75 s-0.30668 0.91334 -0.58002 1.24 s-0.63334 0.57 -1.08 0.73 s-1.01 0.24 -1.69 0.24 c-1.1733 0 -2.0266 -0.32666 -2.56 -0.98 s-0.8 -1.6467 -0.8 -2.98 l0 -7.4 c0 -1.3333 0.27 -2.3266 0.81 -2.98 s1.4633 -0.98 2.77 -0.98 c1.1733 0 2.0134 0.32666 2.52 0.98 s0.77332 1.6467 0.79998 2.98 l0.02 0.92 l-0.92 0 l-0.02 -1.16 c0 -0.33334 -0.03334 -0.67 -0.1 -1.01 s-0.18666 -0.65 -0.36 -0.93 s-0.41668 -0.50666 -0.73002 -0.68 s-0.73 -0.26 -1.25 -0.26 c-0.50666 0 -0.93 0.08 -1.27 0.24 s-0.61 0.38 -0.81 0.66 s-0.33666 0.61 -0.41 0.99 s-0.11 0.79 -0.11 1.23 l0.04 7.5 c0 0.92 0.17 1.64 0.51 2.16 s0.96334 0.78 1.87 0.78 c0.52 0 0.95 -0.07 1.29 -0.21 s0.60666 -0.33666 0.8 -0.59 s0.33 -0.56 0.41 -0.92 s0.12 -0.75334 0.12 -1.18 l0.02 -1.3 l0.92 0 z M161.38 20 l-0.02 -6.98 l-5.48 0 l0.02 6.98 l-1.16 0 l0 -15 l1.16 0 l-0.02 6.96 l5.48 0 l0.02 -6.96 l1.18 0 l0 15 l-1.18 0 z M171.22000000000003 20 l-5.8 -12.88 l0 12.88 l-1.1 0 l0 -15 l1.18 0 l5.8 12.3 l0.14 -12.3 l1.08 0 l0 15 l-1.3 0 z M177.86 20.18 c-2.52 0 -3.78 -1.32 -3.78 -3.96 l0 -7.4 c0 -1.3333 0.31666 -2.3266 0.95 -2.98 s1.6567 -0.98 3.07 -0.98 c1.2933 0 2.25 0.33 2.87 0.99 s0.93 1.6367 0.93 2.93 l0 7.44 c0 0.66666 -0.07 1.2467 -0.21 1.74 s-0.37 0.90668 -0.69 1.24 s-0.73666 0.58 -1.25 0.74 s-1.1433 0.24 -1.89 0.24 z M180.84 8.76 c0 -0.33334 -0.04664 -0.67338 -0.13998 -1.02 s-0.24668 -0.66332 -0.46002 -0.94998 s-0.49668 -0.52 -0.85002 -0.7 s-0.79 -0.27 -1.31 -0.27 c-0.57334 0 -1.05 0.08 -1.43 0.24 s-0.68 0.38334 -0.9 0.67 s-0.37666 0.62332 -0.47 1.01 s-0.14 0.80666 -0.14 1.26 l0 7.1 c0 0.34666 0.04 0.7 0.12 1.06 s0.22334 0.69 0.43 0.99 s0.48666 0.54666 0.84 0.74 s0.79668 0.29 1.33 0.29 c0.57334 0 1.05 -0.07666 1.43 -0.23 s0.68334 -0.36334 0.91 -0.63 s0.39 -0.58332 0.49 -0.94998 s0.15 -0.76332 0.15 -1.19 l0 -7.42 z M183.46000000000004 20 l0 -15 l1.08 0 l0 13.92 l5.1 0 l0 1.08 l-6.18 0 z M193.92000000000004 20.18 c-2.52 0 -3.78 -1.32 -3.78 -3.96 l0 -7.4 c0 -1.3333 0.31666 -2.3266 0.95 -2.98 s1.6567 -0.98 3.07 -0.98 c1.2933 0 2.25 0.33 2.87 0.99 s0.93 1.6367 0.93 2.93 l0 7.44 c0 0.66666 -0.07 1.2467 -0.21 1.74 s-0.37 0.90668 -0.69 1.24 s-0.73666 0.58 -1.25 0.74 s-1.1433 0.24 -1.89 0.24 z M196.90000000000003 8.76 c0 -0.33334 -0.04664 -0.67338 -0.13998 -1.02 s-0.24668 -0.66332 -0.46002 -0.94998 s-0.49668 -0.52 -0.85002 -0.7 s-0.79 -0.27 -1.31 -0.27 c-0.57334 0 -1.05 0.08 -1.43 0.24 s-0.68 0.38334 -0.9 0.67 s-0.37666 0.62332 -0.47 1.01 s-0.14 0.80666 -0.14 1.26 l0 7.1 c0 0.34666 0.04 0.7 0.12 1.06 s0.22334 0.69 0.43 0.99 s0.48666 0.54666 0.84 0.74 s0.79668 0.29 1.33 0.29 c0.57334 0 1.05 -0.07666 1.43 -0.23 s0.68334 -0.36334 0.91 -0.63 s0.39 -0.58332 0.49 -0.94998 s0.15 -0.76332 0.15 -1.19 l0 -7.42 z M203.30000000000007 20.18 c-1.2667 0 -2.2134 -0.33334 -2.84 -1 s-0.94 -1.6533 -0.94 -2.96 l0 -7.4 c0 -1.3333 0.31334 -2.3266 0.94 -2.98 s1.64 -0.98 3.04 -0.98 c1.32 0 2.2866 0.33 2.9 0.99 s0.92 1.6367 0.92 2.93 l0 1.08 l-1.08 0 l0 -1.28 c0 -0.33334 -0.04 -0.67 -0.12 -1.01 s-0.22334 -0.65 -0.43 -0.93 s-0.49 -0.50666 -0.85 -0.68 s-0.82 -0.26 -1.38 -0.26 s-1.0233 0.07666 -1.39 0.23 s-0.66 0.37 -0.88 0.65 s-0.37666 0.61 -0.47 0.99 s-0.14 0.79666 -0.14 1.25 l0 7.48 c0 0.46666 0.04666 0.88332 0.14 1.25 s0.25 0.67666 0.47 0.93 s0.50666 0.44668 0.86 0.58002 s0.78334 0.2 1.29 0.2 c0.56 0 1.0267 -0.07 1.4 -0.21 s0.67334 -0.33666 0.9 -0.59 s0.39 -0.56 0.49 -0.92 s0.15 -0.75334 0.15 -1.18 l0 -2.94 l-3.14 -0.02 l0 -0.98 l4.18 0.02 l0 3.78 c0 1.32 -0.30666 2.31 -0.92 2.97 s-1.6467 0.99 -3.1 0.99 z M212.44000000000008 13.14 l0 6.86 l-1.08 0 l0 -6.86 l-3.62 -8.14 l1.24 0 l2.9 6.94 l2.94 -6.94 l1.24 0 z" fill="#FFFFC2"></path></g><g id="SvgjsG1221" featurekey="nameLeftFeature-0" transform="matrix(2.4111645845416776,0,0,2.4111645845416776,97.9720885386458,-13.261405214979227)" fill="#FFFFC2"><path d="M9.5 18 l-7 0 l0 -12.5 l1 0 l0 11.5 l6 0 l0 1 z M4 5.5 l1 0 l0 11 l-1 0 l0 -11 z M9.5 19.5 l-7 0 l0 -1 l7 0 l0 1 z M21 11.5 l0 1 l-5.5 0 l0 4.5 l6.5 0 l0 1 l-7.5 0 l0 -12.5 l7.5 0 l0 1 l-6.5 0 l0 5 l5.5 0 z M22 8 l-4.6 0 l-1.06 -1 l5.66 0 l0 1 z M16 7.359999999999999 l1 0.98 l0 2.66 l-1 0 l0 -3.64 z M21 14 l-3.6 0 l-1.06 -1 l4.66 0 l0 1 z M16 13.36 l1 0.98 l0 2.16 l-1 0 l0 -3.14 z M22 19.5 l-7.5 0 l0 -1 l7.5 0 l0 1 z M25.1 19.5 l3.96 -7 l-3.96 -7 l1.14 0 l3.36 6 l3.4 -6 l1.16 0 l-7.92 14 l-1.14 0 z M28 5.5 l2.2 3.96 l-0.54 1.04 l-2.82 -5 l1.16 0 z M34.76 19.5 l-3.42 -6 l-3.4 6 l-1.1 0 l7.92 -14 l1.14 0 l-3.96 7 l3.96 7 l-1.14 0 z M33.04 19.5 l-2.24 -4 l0.54 -0.94 l2.82 4.94 l-1.12 0 z" fill="#FFFFC2"></path></g><g id="SvgjsG1222" featurekey="nameRightFeature-0" transform="matrix(2.1750195353053194,0,0,2.1750195353053194,192.64996092938935,-10.30959209952475)" fill="#FFFFC2"><path d="M5.5 5 l0 15 l-3.5 0 l0 -15 l3.5 0 z M2.5 19.5 l1 0 l0 -14 l-1 0 l0 14 z M4 19.5 l1 0 l0 -14 l-1 0 l0 14 z M13 20 l-3.5 0 l0 -15 l2.5 0 l3.5 6.2 l0 -6.2 l3.5 0 l0 15 l-2.5 0 l-3.5 -6.2 l0 6.2 z M11 9.24 l5.76 10.26 l1.14 0 l-7.9 -14 l0 14 l1 0 l0 -10.26 z M10.6 5.5 l7.9 14 l0 -14 l-1 0 l0 10.26 l-5.76 -10.26 l-1.14 0 z M16 12.059999999999999 l1 1.74 l0 -8.3 l-1 0 l0 6.56 z M12.5 12.9 l-1 -1.74 l0 8.34 l1 0 l0 -6.6 z M29 10.26 c0 -1.2 -0.6 -2 -1.5 -2 s-1.5 0.8 -1.5 2 l0 4.5 c0 1.2 0.6 1.98 1.5 1.98 c0.7 0 1.2 -0.48 1.4 -1.24 l-1.9 0 l0 -3.5 l5.5 0 l0 2.76 c0 3.3 -2 5.5 -5 5.5 s-5 -2.2 -5 -5.5 l0 -4.5 c0 -3.3 2 -5.52 5 -5.52 s5 2.22 5 5.52 l0 0.48 l-3.5 0 l0 -0.48 z M23 14.76 c0 3 1.8 4.98 4.5 4.98 c1.26 0 2.3 -0.44 3.1 -1.2 l-0.76 -0.74 c-0.6 0.6 -1.38 0.96 -2.34 0.96 c-2.1 0 -3.5 -1.6 -3.5 -4 l0 -4.5 c0 -2.4 1.4 -4.02 3.5 -4.02 s3.5 1.62 3.5 4.02 l1 0 c0 -3 -1.8 -5 -4.5 -5 s-4.5 2 -4.5 5 l0 4.5 z M27.5 7.74 c1.2 0 2 1.02 2 2.52 l1 0 c0 -2.1 -1.2 -3.5 -3 -3.5 c-0.8 0 -1.44 0.24 -2 0.74 l0.74 0.7 c0.36 -0.3 0.76 -0.46 1.26 -0.46 z M27.5 17.259999999999998 c-1.2 0 -2 -1 -2 -2.5 l0 -4.5 c0 -0.66 0.14 -1.2 0.4 -1.66 l-0.7 -0.7 c-0.46 0.6 -0.7 1.4 -0.7 2.36 l0 4.5 c0 2.1 1.2 3.48 3 3.48 s3 -1.38 3 -3.48 l0 -2.26 l-3 0 l0 1 l2 0 l0 1.26 c0 1.5 -0.8 2.5 -2 2.5 z M31 14.76 c0 1.08 -0.3 1.98 -0.8 2.7 l0.74 0.7 c0.66 -0.86 1.06 -2.02 1.06 -3.4 l0 -2.26 l-1 0 l0 2.26 z M29 15 l0 -1 l-1.5 0 l0 1 l1.5 0 z M38.5 20 l0 -11.5 l-3.5 0 l0 -3.5 l10.5 0 l0 3.5 l-3.5 0 l0 11.5 l-3.5 0 z M39 19.5 l1 0 l0 -13 l5 0 l0 -1 l-9.5 0 l0 1 l3.5 0 l0 13 z M38.5 7 l-3 0 l0 1 l3 0 l0 -1 z M45 7 l-4.14 0 l0.98 1 l3.16 0 l0 -1 z M41.5 8.4 l-1 -1.04 l0 12.14 l1 0 l0 -11.1 z M53 4.74 c3 0 5 2.22 5 5.52 l0 4.5 c0 3.3 -2 5.5 -5 5.5 s-5 -2.2 -5 -5.5 l0 -4.5 c0 -3.3 2 -5.52 5 -5.52 z M57.5 10.26 c0 -3 -1.8 -5 -4.5 -5 s-4.5 2 -4.5 5 l0 4.5 c0 3 1.8 4.98 4.5 4.98 c1.2 0 2.24 -0.38 3 -1.14 l-0.7 -0.7 c-0.6 0.56 -1.4 0.86 -2.3 0.86 c-2.1 0 -3.5 -1.6 -3.5 -4 l0 -4.5 c0 -2.4 1.4 -4.02 3.5 -4.02 s3.5 1.62 3.5 4.02 l0 4.5 c0 1.14 -0.3 2.1 -0.86 2.8 l0.76 0.68 c0.7 -0.9 1.1 -2.1 1.1 -3.48 l0 -4.5 z M50.6 7.960000000000001 c-0.4 0.6 -0.6 1.4 -0.6 2.3 l0 4.5 c0 2.1 1.2 3.48 3 3.48 s3 -1.38 3 -3.48 l0 -4.5 c0 -2.1 -1.2 -3.5 -3 -3.5 c-0.84 0 -1.56 0.3 -2.04 0.84 l0.74 0.7 c0.3 -0.34 0.76 -0.56 1.3 -0.56 c1.2 0 2 1.02 2 2.52 l0 4.5 c0 1.5 -0.8 2.5 -2 2.5 s-2 -1 -2 -2.5 l0 -4.5 c0 -0.6 0.14 -1.16 0.34 -1.56 z M51.5 14.76 c0 1.2 0.6 1.98 1.5 1.98 s1.5 -0.78 1.5 -1.98 l0 -4.5 c0 -1.2 -0.6 -2 -1.5 -2 s-1.5 0.8 -1.5 2 l0 4.5 z M65 20 l-3.5 0 l0 -15 l2.5 0 l3.5 6.2 l0 -6.2 l3.5 0 l0 15 l-2.5 0 l-3.5 -6.2 l0 6.2 z M63 9.24 l5.76 10.26 l1.14 0 l-7.9 -14 l0 14 l1 0 l0 -10.26 z M62.6 5.5 l7.9 14 l0 -14 l-1 0 l0 10.26 l-5.76 -10.26 l-1.14 0 z M68 12.059999999999999 l1 1.74 l0 -8.3 l-1 0 l0 6.56 z M64.5 12.9 l-1 -1.74 l0 8.34 l1 0 l0 -6.6 z" fill="#FFFFC2"></path></g></svg>